<svg width="114" height="36" viewBox="0 0 114 36" fill="none" xmlns="http://www.w3.org/2000/svg">
<path d="M4.15267 0L13.6739 25.9184L23.195 0H27.3477L13.6739 36L0 0H4.15267Z" fill="#029AA5"/>
<path d="M33.0175 2.24011C34.436 2.24011 35.601 3.41138 35.601 4.83759C35.601 6.26379 34.436 7.43405 33.0175 7.43405C31.6001 7.43405 30.4351 6.26379 30.4351 4.83759C30.4351 3.41138 31.6001 2.24011 33.0175 2.24011ZM34.8413 12.8317V33.9636H31.1948V12.8317H34.8413Z" fill="#029AA5"/>
<path d="M42.7414 12.8317L49.0214 27.0896L55.3012 12.8317H59.3531L49.0214 35.3386L38.6895 12.8317H42.7414Z" fill="#029AA5"/>
<path d="M79.3037 12.8317H82.9503V33.9636H79.3037V31.0098C78.0889 32.5886 75.8099 34.5748 72.1124 34.5748C66.7948 34.5748 61.8824 30.8061 61.8824 23.372C61.8824 16.0906 66.7439 12.3229 72.1124 12.3229C76.1642 12.3229 78.3425 14.563 79.3037 15.8367V12.8317ZM65.6299 23.372C65.6299 27.9046 68.1624 31.316 72.5177 31.316C76.9749 31.316 79.5063 27.5984 79.5063 23.4232C79.5063 17.9744 75.759 15.5817 72.5177 15.5817C68.9221 15.5817 65.6299 18.2294 65.6299 23.372Z" fill="#029AA5"/>
<path d="M91.6587 2.24011C93.0772 2.24011 94.2421 3.41138 94.2421 4.83759C94.2421 6.26379 93.0772 7.43405 91.6587 7.43405C90.2413 7.43405 89.0763 6.26379 89.0763 4.83759C89.0763 3.41138 90.2413 2.24011 91.6587 2.24011ZM93.4825 12.8317V33.9636H89.8359V12.8317H93.4825Z" fill="#029AA5"/>
<path d="M109.029 17.7205C108.522 16.4981 107.459 15.5817 106.091 15.5817C104.775 15.5817 103.559 16.3455 103.559 17.9744C103.559 19.502 104.572 19.9607 106.952 20.9794C109.99 22.252 111.409 23.2195 112.219 24.2383C113.131 25.3583 113.333 26.4784 113.333 27.6496C113.333 32.0798 110.143 34.5748 106.091 34.5748C105.23 34.5748 100.52 34.4724 98.7471 29.1773L101.888 27.8534C102.293 28.9734 103.508 31.316 106.142 31.316C108.522 31.316 109.586 29.5335 109.586 27.9547C109.586 25.9696 108.168 25.3071 106.192 24.442C103.661 23.3219 102.039 22.5069 101.077 21.3356C100.266 20.3169 100.115 19.2993 100.115 18.2294C100.115 14.5118 102.698 12.3229 106.243 12.3229C107.357 12.3229 110.346 12.5266 112.017 16.1418L109.029 17.7205Z" fill="#029AA5"/>
</svg>
