<svg width="48" height="48" viewBox="0 0 48 48" fill="none" xmlns="http://www.w3.org/2000/svg">
<path d="M23.999 0C14.4135 0 6.61523 7.79831 6.61523 17.3837C6.61523 29.2794 22.172 46.7431 22.8344 47.4807C23.4565 48.1736 24.5427 48.1724 25.1637 47.4807C25.826 46.7431 41.3828 29.2794 41.3828 17.3837C41.3826 7.79831 33.5844 0 23.999 0ZM23.999 26.1299C19.1763 26.1299 15.2529 22.2064 15.2529 17.3837C15.2529 12.561 19.1764 8.63756 23.999 8.63756C28.8216 8.63756 32.745 12.5611 32.745 17.3838C32.745 22.2065 28.8216 26.1299 23.999 26.1299Z" fill="#029AA5"/>
</svg>
