<svg width="30" height="30" viewBox="0 0 30 30" fill="none" xmlns="http://www.w3.org/2000/svg">
<circle cx="15" cy="15" r="15" fill="#03A9F4"/>
<g clip-path="url(#clip0)">
<path d="M23.1434 10.6448C22.5697 10.8965 21.9583 11.0633 21.3209 11.1443C21.9766 10.7528 22.4771 10.1376 22.7124 9.39605C22.101 9.76055 21.426 10.018 20.7067 10.1617C20.1262 9.54359 19.2988 9.16077 18.3962 9.16077C16.6451 9.16077 15.2353 10.5821 15.2353 12.3246C15.2353 12.5753 15.2565 12.8164 15.3086 13.0459C12.679 12.9176 10.3522 11.6573 8.78906 9.73741C8.51617 10.2109 8.35609 10.7528 8.35609 11.3362C8.35609 12.4316 8.9202 13.4027 9.76106 13.9648C9.25288 13.9552 8.75434 13.8077 8.33199 13.5753C8.33199 13.5849 8.33199 13.5974 8.33199 13.61C8.33199 15.1471 9.42838 16.4238 10.8661 16.7179C10.6087 16.7883 10.3281 16.822 10.0368 16.822C9.83434 16.822 9.62992 16.8104 9.43802 16.768C9.84784 18.0206 11.0108 18.9415 12.3936 18.9714C11.3174 19.8132 9.95102 20.3204 8.47181 20.3204C8.21242 20.3204 7.96363 20.3089 7.71484 20.2771C9.11595 21.1806 10.7765 21.6965 12.5671 21.6965C18.3876 21.6965 21.5697 16.8751 21.5697 12.6958C21.5697 12.556 21.5649 12.421 21.5581 12.287C22.1859 11.8415 22.7133 11.2851 23.1434 10.6448Z" fill="white"/>
</g>
<defs>
<clipPath id="clip0">
<rect width="15.4286" height="15.4286" fill="white" transform="translate(7.71484 7.71436)"/>
</clipPath>
</defs>
</svg>
