<svg width="30" height="30" viewBox="0 0 30 30" fill="none" xmlns="http://www.w3.org/2000/svg">
<circle cx="15" cy="15" r="15" fill="#4A76A8"/>
<g clip-path="url(#clip0)">
<path d="M22.8396 19.0253C22.7912 18.9443 22.4919 18.294 21.0518 16.9574C19.5442 15.5578 19.7467 15.785 21.5626 13.365C22.6685 11.8911 23.1107 10.9911 22.9723 10.6063C22.8407 10.2395 22.0272 10.3363 22.0272 10.3363L19.3225 10.352C19.3225 10.352 19.1223 10.325 18.9726 10.4139C18.8275 10.5016 18.7341 10.7042 18.7341 10.7042C18.7341 10.7042 18.3055 11.845 17.7339 12.8148C16.529 14.8613 16.0463 14.9693 15.8494 14.8422C15.3915 14.5463 15.5063 13.6519 15.5063 13.0173C15.5063 11.0338 15.8067 10.2069 14.9201 9.9931C14.6253 9.92222 14.4093 9.87497 13.6566 9.86709C12.6913 9.85697 11.8734 9.87047 11.411 10.0966C11.1027 10.2474 10.8653 10.5838 11.0104 10.6029C11.1893 10.6265 11.5944 10.712 11.8092 11.0046C12.0871 11.3815 12.077 12.2298 12.077 12.2298C12.077 12.2298 12.2368 14.5643 11.7046 14.8546C11.339 15.0537 10.8383 14.6476 9.76385 12.7901C9.21368 11.8394 8.7974 10.7874 8.7974 10.7874C8.7974 10.7874 8.71752 10.5916 8.57464 10.487C8.40137 10.3599 8.15836 10.3194 8.15836 10.3194L5.58642 10.3351C5.58642 10.3351 5.20052 10.3464 5.05876 10.514C4.93275 10.6637 5.04863 10.9719 5.04863 10.9719C5.04863 10.9719 7.06253 15.6826 9.34194 18.0577C11.4335 20.2347 13.8074 20.0919 13.8074 20.0919H14.883C14.883 20.0919 15.2081 20.0559 15.3735 19.877C15.5265 19.7127 15.5209 19.4044 15.5209 19.4044C15.5209 19.4044 15.4995 17.9609 16.1701 17.7483C16.8305 17.539 17.6788 19.1434 18.5777 19.7611C19.2573 20.228 19.7737 20.1256 19.7737 20.1256L22.178 20.0919C22.178 20.0919 23.4358 20.0142 22.8396 19.0253Z" fill="white"/>
</g>
<defs>
<clipPath id="clip0">
<rect width="18" height="18" fill="white" transform="translate(5 6)"/>
</clipPath>
</defs>
</svg>
