<?xml version="1.0" encoding="utf-8"?><svg xmlns="http://www.w3.org/2000/svg" xmlns:xlink="http://www.w3.org/1999/xlink"><symbol viewBox="0 0 8 12" id="chevron-left" xmlns="http://www.w3.org/2000/svg"><path d="M7.5 10.59L2.92 6 7.5 1.41 6.09 0l-6 6 6 6 1.41-1.41z"/></symbol><symbol viewBox="0 0 8 12" id="chevron-right" xmlns="http://www.w3.org/2000/svg"><path d="M.5 10.59L5.08 6 .5 1.41 1.91 0l6 6-6 6L.5 10.59z"/></symbol><symbol viewBox="0 0 24 24" id="cross" xmlns="http://www.w3.org/2000/svg"><path d="M13.325 12l10.4-10.399A.937.937 0 1022.399.275L12 10.675 1.6.275A.937.937 0 10.274 1.601l10.4 10.4-10.4 10.4A.938.938 0 101.6 23.725l10.4-10.4 10.399 10.4a.935.935 0 001.326 0 .937.937 0 000-1.326L13.325 12z"/></symbol><symbol viewBox="0 0 10 18" id="fb" xmlns="http://www.w3.org/2000/svg"><path d="M7.998 2.989h1.643V.127A21.22 21.22 0 007.247 0C4.878 0 3.255 1.49 3.255 4.23v2.52H.641v3.2h2.614V18h3.206V9.95h2.508l.399-3.2H6.46V4.547c0-.924.25-1.557 1.538-1.557z"/></symbol><symbol viewBox="0 0 16 16" id="search" xmlns="http://www.w3.org/2000/svg"><path d="M15.489 14.573l-3.808-3.96a6.44 6.44 0 001.515-4.153A6.467 6.467 0 006.736 0a6.467 6.467 0 00-6.46 6.46 6.467 6.467 0 006.46 6.46 6.39 6.39 0 003.701-1.169l3.837 3.99c.16.167.376.259.608.259a.844.844 0 00.607-1.427zM6.736 1.685a4.78 4.78 0 014.775 4.775 4.78 4.78 0 01-4.775 4.775A4.78 4.78 0 011.962 6.46a4.78 4.78 0 014.774-4.775z"/></symbol><symbol viewBox="0 0 16 17" id="telegram" xmlns="http://www.w3.org/2000/svg"><g clip-path="url(#fclip0)"><path d="M6.054 10.473l-.255 3.59c.365 0 .523-.157.713-.345l1.712-1.636 3.547 2.598c.65.362 1.109.171 1.284-.599l2.329-10.91V3.17c.207-.962-.348-1.338-.981-1.102L.716 7.308c-.934.363-.92.883-.159 1.12l3.5 1.088 8.127-5.086c.383-.253.73-.113.444.14l-6.574 5.903z"/></g><defs><clipPath id="fclip0"><path transform="translate(0 .714)" d="M0 0h15.429v15.429H0z"/></clipPath></defs></symbol><symbol viewBox="0 0 17 13" id="twitter" xmlns="http://www.w3.org/2000/svg"><path d="M16.143 1.645a6.594 6.594 0 01-1.822.5 3.145 3.145 0 001.391-1.75 6.322 6.322 0 01-2.005.766 3.162 3.162 0 00-5.471 2.163c0 .25.02.491.073.72A8.953 8.953 0 011.789.738a3.168 3.168 0 00.972 4.227 3.124 3.124 0 01-1.429-.389v.035a3.178 3.178 0 002.534 3.108c-.257.07-.538.104-.83.104a2.82 2.82 0 01-.598-.054 3.193 3.193 0 002.956 2.203 6.356 6.356 0 01-3.922 1.35c-.26 0-.508-.012-.757-.044a8.905 8.905 0 004.852 1.42c5.82 0 9.003-4.822 9.003-9.001 0-.14-.005-.275-.012-.409a6.31 6.31 0 001.585-1.642z"/></symbol><symbol viewBox="0 0 18 12" id="vk" xmlns="http://www.w3.org/2000/svg"><path d="M17.84 10.025c-.049-.08-.348-.731-1.788-2.068-1.508-1.4-1.305-1.172.51-3.592 1.107-1.474 1.549-2.374 1.41-2.759-.131-.367-.945-.27-.945-.27l-2.705.016s-.2-.027-.35.062c-.144.088-.238.29-.238.29s-.428 1.141-1 2.11c-1.205 2.047-1.688 2.155-1.885 2.028-.457-.296-.343-1.19-.343-1.825 0-1.983.3-2.81-.586-3.024-.295-.07-.51-.118-1.263-.126-.966-.01-1.784.003-2.246.23-.308.15-.546.487-.4.506.178.024.583.109.798.402.278.376.268 1.225.268 1.225s.16 2.334-.372 2.625c-.366.199-.867-.207-1.941-2.065-.55-.95-.967-2.003-.967-2.003s-.08-.195-.222-.3c-.174-.127-.417-.168-.417-.168l-2.572.016s-.385.011-.527.179c-.126.15-.01.458-.01.458s2.014 4.71 4.293 7.086c2.091 2.177 4.465 2.034 4.465 2.034h1.076s.325-.036.49-.215c.154-.164.148-.473.148-.473s-.022-1.443.65-1.656c.66-.209 1.508 1.395 2.407 2.013.68.467 1.196.365 1.196.365l2.404-.034s1.258-.078.662-1.067z"/></symbol></svg>