<svg width="24" height="24" viewBox="0 0 24 24" fill="none" xmlns="http://www.w3.org/2000/svg">
<path d="M13.3254 12.0008L23.7249 1.60123C24.0911 1.23509 24.0911 0.641461 23.7249 0.275368C23.3588 -0.0907252 22.7652 -0.0907721 22.3991 0.275368L11.9995 10.6749L1.59997 0.275368C1.23383 -0.0907721 0.64021 -0.0907721 0.274117 0.275368C-0.0919764 0.641508 -0.0920233 1.23513 0.274117 1.60123L10.6736 12.0008L0.274117 22.4003C-0.0920233 22.7665 -0.0920233 23.3601 0.274117 23.7262C0.457163 23.9092 0.697116 24.0007 0.937069 24.0007C1.17702 24.0007 1.41693 23.9092 1.60002 23.7262L11.9995 13.3267L22.399 23.7262C22.5821 23.9092 22.822 24.0007 23.062 24.0007C23.3019 24.0007 23.5418 23.9092 23.7249 23.7262C24.0911 23.3601 24.0911 22.7664 23.7249 22.4003L13.3254 12.0008Z" fill="#E3E3E3"/>
</svg>
