<svg width="16" height="16" viewBox="0 0 16 16" fill="none" xmlns="http://www.w3.org/2000/svg">
<path d="M15.4888 14.5735L11.6808 10.6129C12.6599 9.44901 13.1963 7.98455 13.1963 6.45999C13.1963 2.89801 10.2983 0 6.73633 0C3.17435 0 0.276337 2.89801 0.276337 6.45999C0.276337 10.022 3.17435 12.92 6.73633 12.92C8.07355 12.92 9.34785 12.5167 10.4373 11.751L14.2743 15.7416C14.4347 15.9082 14.6504 16 14.8815 16C15.1003 16 15.3079 15.9166 15.4655 15.7649C15.8003 15.4428 15.8109 14.9085 15.4888 14.5735ZM6.73633 1.68522C9.3692 1.68522 11.5111 3.82713 11.5111 6.45999C11.5111 9.09286 9.3692 11.2348 6.73633 11.2348C4.10346 11.2348 1.96155 9.09286 1.96155 6.45999C1.96155 3.82713 4.10346 1.68522 6.73633 1.68522Z" fill="#029AA5"/>
</svg>
