<svg width="17" height="13" viewBox="0 0 17 13" fill="none" xmlns="http://www.w3.org/2000/svg">
<path d="M16.1434 1.6448C15.5697 1.89648 14.9583 2.0633 14.3209 2.1443C14.9766 1.7528 15.4771 1.13759 15.7124 0.396052C15.101 0.760552 14.426 1.01802 13.7067 1.1617C13.1262 0.543588 12.2988 0.160767 11.3962 0.160767C9.64509 0.160767 8.23531 1.58212 8.23531 3.32459C8.23531 3.5753 8.25652 3.81637 8.30859 4.04587C5.67899 3.91762 3.35217 2.6573 1.78906 0.73741C1.51617 1.21087 1.35609 1.7528 1.35609 2.3362C1.35609 3.43162 1.9202 4.40266 2.76106 4.96484C2.25288 4.9552 1.75434 4.80766 1.33199 4.57527C1.33199 4.58491 1.33199 4.59745 1.33199 4.60998C1.33199 6.14705 2.42838 7.42377 3.86613 7.71787C3.60867 7.78827 3.32806 7.82202 3.03684 7.82202C2.83434 7.82202 2.62992 7.81045 2.43802 7.76802C2.84784 9.02062 4.01077 9.94152 5.39356 9.97141C4.31742 10.8132 2.95102 11.3204 1.47181 11.3204C1.21242 11.3204 0.963629 11.3089 0.714844 11.2771C2.11595 12.1806 3.77645 12.6965 5.56713 12.6965C11.3876 12.6965 14.5697 7.87505 14.5697 3.69584C14.5697 3.55602 14.5649 3.42102 14.5581 3.28698C15.1859 2.84148 15.7133 2.28509 16.1434 1.6448Z" fill="white"/>
</svg>
